<svg width="150" height="140" viewBox="0 0 150 140" fill="none" xmlns="http://www.w3.org/2000/svg">
<g clip-path="url(#clip0_5_68)">
<path d="M0.0411948 99.8007C0.0518286 99.8558 0.0685975 99.9094 0.0911874 99.9607C0.101186 99.9907 0.111185 100.031 0.121183 100.061L11.5295 119.818L11.5595 119.848C11.5795 119.878 11.5995 119.908 11.6295 119.948C11.6681 119.99 11.7118 120.027 11.7595 120.058C11.7895 120.078 11.8095 120.108 11.8395 120.128C11.8512 120.136 11.8654 120.139 11.8795 120.138C11.9926 120.201 12.1197 120.235 12.2494 120.238H57.3828L68.5511 139.575L68.5811 139.605C68.6011 139.635 68.6211 139.665 68.6511 139.705C68.6897 139.747 68.7334 139.784 68.7811 139.815C68.8111 139.835 68.8311 139.865 68.8611 139.885C68.8728 139.893 68.887 139.896 68.9011 139.895C69.0143 139.958 69.1414 139.992 69.271 139.995H137.711C137.844 139.993 137.974 139.958 138.091 139.895L138.181 139.835C138.266 139.778 138.34 139.707 138.401 139.625C138.411 139.605 138.441 139.595 138.451 139.575L149.859 119.818C149.869 119.798 149.869 119.788 149.879 119.768C149.897 119.736 149.91 119.703 149.919 119.668C149.929 119.628 149.939 119.598 149.949 119.558C149.957 119.522 149.961 119.485 149.959 119.448C149.959 119.428 149.969 119.418 149.969 119.398C149.969 119.378 149.959 119.368 149.959 119.348C149.959 119.308 149.949 119.278 149.949 119.238C149.949 119.198 149.929 119.168 149.919 119.128C149.908 119.094 149.894 119.061 149.879 119.028C149.869 119.008 149.869 118.998 149.859 118.978L127.293 79.8937L138.451 60.5565C138.461 60.5365 138.461 60.5265 138.471 60.5065C138.488 60.475 138.502 60.4414 138.511 60.4065C138.521 60.3665 138.531 60.3365 138.541 60.2965C138.549 60.2605 138.552 60.2235 138.551 60.1865C138.551 60.1665 138.561 60.1565 138.561 60.1365C138.561 60.1166 138.551 60.1066 138.551 60.0866C138.551 60.0466 138.541 60.0166 138.541 59.9766C138.541 59.9366 138.521 59.9066 138.511 59.8666C138.499 59.8326 138.486 59.7992 138.471 59.7666C138.461 59.7466 138.461 59.7366 138.451 59.7166L104.246 0.435308C104.226 0.405312 104.196 0.385315 104.176 0.35532C104.142 0.309945 104.105 0.266548 104.066 0.225339C104.025 0.192006 103.982 0.161919 103.936 0.135352C103.892 0.106117 103.845 0.0825943 103.796 0.0653622C103.737 0.0462327 103.677 0.0328384 103.616 0.0253681C103.586 0.0253681 103.556 0.00537109 103.516 0.00537109H80.6994C80.6794 0.00537109 80.6694 0.0153696 80.6494 0.0153696C80.6094 0.0153696 80.5794 0.0253681 80.5394 0.0253681L80.4194 0.0553637C80.3894 0.0653622 80.3494 0.0853594 80.3194 0.0953579C80.2894 0.105356 80.2894 0.105356 80.2694 0.115355C80.258 0.127705 80.2445 0.137871 80.2294 0.145351C80.1971 0.1655 80.1669 0.188956 80.1394 0.21534C80.1103 0.239424 80.0835 0.266206 80.0594 0.295329C80.0395 0.325324 80.0095 0.35532 79.9895 0.385315C79.9771 0.396709 79.9669 0.410263 79.9595 0.425309L57.3928 39.5196H35.0761C35.0561 39.5196 35.0461 39.5296 35.0261 39.5296C34.9861 39.5296 34.9561 39.5396 34.9161 39.5396C34.8761 39.5396 34.8361 39.5596 34.8061 39.5696C34.7721 39.5812 34.7387 39.5945 34.7061 39.6096C34.6861 39.6196 34.6761 39.6196 34.6561 39.6296C34.6361 39.6396 34.6361 39.6496 34.6161 39.6596C34.5838 39.6797 34.5536 39.7032 34.5261 39.7295C34.497 39.7536 34.4702 39.7804 34.4461 39.8095C34.4261 39.8395 34.3962 39.8695 34.3762 39.8995C34.3638 39.9109 34.3536 39.9245 34.3462 39.9395L0.131182 99.2208C0.116642 99.2526 0.106549 99.2863 0.101186 99.3208C0.0799971 99.3726 0.0632721 99.4261 0.0511933 99.4808C0.0353222 99.5325 0.0285561 99.5867 0.0311962 99.6408C0.0295408 99.6943 0.0328882 99.7478 0.0411948 99.8007ZM103.026 1.70512L136.271 59.2867H115.414L82.1591 1.70512H103.026ZM114.434 98.8009H93.5675L115.404 60.9664H136.271L114.434 98.8009ZM80.6994 2.545L113.944 60.1265L92.1077 97.961L81.6792 79.8837L92.8476 60.5465C92.8576 60.5265 92.8576 60.5165 92.8676 60.4965C92.8852 60.465 92.8986 60.4314 92.9076 60.3965C92.9176 60.3565 92.9276 60.3265 92.9376 60.2865C92.9458 60.2505 92.9492 60.2135 92.9476 60.1765C92.9476 60.1565 92.9576 60.1465 92.9576 60.1265C92.9576 60.1066 92.9476 60.0966 92.9476 60.0766C92.9476 60.0366 92.9376 60.0066 92.9376 59.9666C92.9376 59.9266 92.9176 59.8966 92.9076 59.8566C92.896 59.8226 92.8826 59.7892 92.8676 59.7566C92.8576 59.7366 92.8576 59.7266 92.8476 59.7066L81.4293 39.9495C81.4093 39.9195 81.3793 39.8995 81.3593 39.8695C81.3251 39.8241 81.2884 39.7808 81.2493 39.7395C81.2084 39.7062 81.1649 39.6761 81.1193 39.6496C81.0747 39.6223 81.0279 39.5988 80.9793 39.5796C80.9248 39.5599 80.8673 39.5498 80.8093 39.5496C80.7793 39.5496 80.7394 39.5296 80.7094 39.5296H59.3525L80.6994 2.545ZM57.8927 41.2193H80.2194L90.6579 59.2867H46.9743L36.5358 41.2193H57.8927ZM35.0761 42.0592L45.5045 60.1265L12.2594 117.708L1.83093 99.6408L35.0761 42.0592ZM13.7292 118.548L46.9743 60.9664H90.6579L80.2194 79.0438H57.8927C57.8727 79.0438 57.8627 79.0538 57.8427 79.0538C57.8027 79.0538 57.7727 79.0638 57.7327 79.0638L57.6127 79.0938C57.5827 79.1038 57.5428 79.1238 57.5128 79.1338C57.4828 79.1438 57.4828 79.1438 57.4628 79.1538C57.4514 79.1661 57.4378 79.1763 57.4228 79.1838C57.3904 79.2039 57.3603 79.2274 57.3328 79.2537C57.3037 79.2778 57.2769 79.3046 57.2528 79.3337C57.2328 79.3637 57.2028 79.3937 57.1828 79.4237C57.1728 79.4337 57.1528 79.4437 57.1528 79.4637L45.7445 99.2208C45.7299 99.2526 45.7199 99.2863 45.7145 99.3208C45.6933 99.3726 45.6766 99.4261 45.6645 99.4808C45.6559 99.5336 45.6525 99.5872 45.6545 99.6408C45.6528 99.6943 45.6562 99.7478 45.6645 99.8007C45.6751 99.8558 45.6919 99.9094 45.7145 99.9607C45.7245 99.9907 45.7345 100.031 45.7445 100.061L56.4229 118.548H13.7292ZM137.251 138.305H70.7608L81.1893 120.238H147.68L137.251 138.305ZM69.301 137.465L47.4642 99.6408L57.9027 81.5634L79.7395 119.388L69.301 137.465ZM147.68 118.548H81.1893L59.3525 80.7235H80.2194L91.3878 100.061L91.4178 100.091C91.4377 100.126 91.4611 100.16 91.4878 100.191C91.5264 100.233 91.57 100.27 91.6178 100.301C91.6478 100.321 91.6677 100.351 91.6977 100.371C91.7095 100.379 91.7236 100.382 91.7377 100.381C91.8509 100.444 91.978 100.478 92.1077 100.481H114.924C115.057 100.478 115.188 100.444 115.304 100.381L115.394 100.321C115.479 100.264 115.554 100.193 115.614 100.111C115.624 100.091 115.654 100.081 115.664 100.061L126.343 81.5634L147.68 118.548Z" fill="white"/>
</g>
<defs>
<clipPath id="clip0_5_68">
<rect width="149.938" height="140" fill="white" transform="translate(0.03125)"/>
</clipPath>
</defs>
</svg>
